# xmcd CD database file generated by OrangeCD 6.2
#
# Track frame offsets:
#	150
#	13897
#	26853
#	47584
#	72471
#	84627
#	104004
#	123894
#	137893
#	156096
#	171696
#
# Disc length: 2875 seconds
#
# Revision: 2
# Processed by: cddbd v1.5.2PL0 Copyright (c) Steve Scherf et al.
# Submitted via: OrangeCD 6.2
#
DISCID=a10b390b
DTITLE=Arkanoid - Get Yourself Influenced
DYEAR=1900
DGENRE=Country
TTITLE0=Ronnie (James Dio)
TTITLE1=Damage Ltd
TTITLE2=Stejernoy
TTITLE3=Mike Perruzzo
TTITLE4=Lighthouse
TTITLE5=Crash'n Burn
TTITLE6=Sabbath
TTITLE7=Descartes
TTITLE8=Sixty-five
TTITLE9=Puzzle
TTITLE10=Ctrl+alt+supr
EXTD=
EXTT0=
EXTT1=
EXTT2=
EXTT3=
EXTT4=
EXTT5=
EXTT6=
EXTT7=
EXTT8=
EXTT9=
EXTT10=
PLAYORDER=
